<svg width="99" height="100" viewBox="0 0 99 100" fill="none" xmlns="http://www.w3.org/2000/svg">
<path d="M49.5 8.33325C26.7176 8.33325 8.25 26.9874 8.25 49.9999C8.25 68.5145 20.2146 84.1895 36.7537 89.6166H62.2463C78.7854 84.1895 90.75 68.5145 90.75 49.9999C90.75 26.9874 72.2824 8.33325 49.5 8.33325Z" fill="url(#paint0_linear_25_871)"/>
<path opacity="0.05" d="M61.8956 87.4918L61.875 75.4126C61.875 73.4564 61.4212 71.5459 60.5509 69.8147C72.1854 67.4543 77.847 60.5064 77.847 48.6126C77.847 43.9147 76.4754 39.7668 73.7715 36.2793C73.9777 35.6189 74.1304 34.9355 74.2252 34.2355C74.613 31.3834 74.1778 29.5189 73.8272 28.0189L73.7715 27.7772C73.3879 26.1189 72.9279 24.9355 72.9094 24.8855L72.6804 24.298L72.4515 23.7105L71.8286 23.6439L71.2037 23.5772C71.2037 23.5772 70.7932 23.5334 70.1704 23.5334C69.3062 23.5334 68.0254 23.6209 66.8147 24.0355L66.4104 24.173C64.8842 24.6918 63.4425 25.1834 61.4254 26.4001C60.8355 26.7564 60.1899 27.1626 59.499 27.6168C56.3764 26.8355 53.0166 26.4376 49.5 26.4376C45.9484 26.4376 42.5597 26.8376 39.4164 27.6272C38.7172 27.1689 38.0676 26.7584 37.4736 26.4001C35.4564 25.1834 34.0147 24.6939 32.4885 24.173L32.0842 24.0355C30.8777 23.6209 29.5948 23.5334 28.7306 23.5334C28.1077 23.5334 27.6973 23.5772 27.6973 23.5772L27.0744 23.6439L26.4557 23.7084L26.2247 24.2939L25.9916 24.8834C25.971 24.9376 25.5111 26.1209 25.1274 27.7814L25.0717 28.0209C24.7211 29.5189 24.2859 31.3855 24.6737 34.2355C24.7727 34.9564 24.9315 35.6626 25.1481 36.3418C22.4977 39.8126 21.1551 43.9376 21.1551 48.6126C21.1551 60.4772 26.8228 67.421 38.4739 69.8001C38.0737 70.6084 37.7623 71.4626 37.5416 72.3501C37.1353 72.4897 36.762 72.5835 36.432 72.6355C35.9411 72.7105 35.4276 72.748 34.9078 72.748C33.4929 72.748 32.3812 72.4689 31.9481 72.2084C31.3026 71.8209 30.1496 70.6939 29.0317 69.0459C28.0768 67.6397 26.5877 65.8001 24.9232 65.0314C23.4836 64.3668 21.9594 63.9855 20.7384 63.9855C20.4538 63.9855 20.1919 64.0064 19.9629 64.0439C18.8966 64.2147 18.0056 64.8064 17.5209 65.6689C17.1022 66.4126 17.0362 67.2793 17.3394 68.0459C17.7911 69.1876 19.0946 70.098 20.1094 70.6605C20.6085 70.9376 21.6872 71.9501 22.3162 72.9709C22.7886 73.7376 23.0072 74.2835 23.3104 75.0376C23.4898 75.4855 23.6878 75.973 23.9559 76.5626C24.9253 78.6918 27.951 80.5709 28.2934 80.7772C29.9557 81.7834 32.7504 82.1064 34.8047 82.2001L35.0584 82.2064H35.0604C35.5554 82.2064 36.2361 82.1584 37.1312 82.0584V87.5022C37.1353 88.6043 36.0236 88.8543 34.5531 88.8314L35.6812 89.2147C40.0022 90.7751 44.6428 91.6668 49.5 91.6668C54.3572 91.6668 58.9978 90.7751 63.3249 89.2168L64.7749 88.6709C63.3084 88.6209 61.908 88.3793 61.8956 87.4918Z" fill="black"/>
<path opacity="0.07" d="M63.4858 89.1604C62.6484 89.2583 60.8438 88.9333 60.8438 87.5041V75.4125C60.8438 73.1333 60.1672 70.9312 58.9132 69.0541C71.1129 67.0604 76.8137 60.527 76.8137 48.6125C76.8137 43.952 75.3988 39.875 72.6082 36.4833C72.8908 35.7229 73.0888 34.9208 73.2023 34.0937C73.5632 31.4354 73.1693 29.7479 72.8228 28.2583L72.7671 28.0166C72.3999 26.4312 71.9668 25.3145 71.9482 25.2687L71.7193 24.6812L71.0944 24.6145C71.0944 24.6145 70.7273 24.575 70.1683 24.575C69.3825 24.575 68.2213 24.652 67.1447 25.0229L66.7404 25.1604C65.2678 25.6625 63.8756 26.1354 61.9534 27.2937C61.2686 27.7062 60.5055 28.1916 59.6826 28.7395C56.5208 27.9041 53.0991 27.4791 49.5 27.4791C45.8659 27.4791 42.4153 27.9062 39.2308 28.75C38.3996 28.1979 37.6324 27.7104 36.9435 27.2937C35.0212 26.1354 33.6291 25.6604 32.1564 25.1604L31.7522 25.0229C30.6776 24.6541 29.5144 24.575 28.7286 24.575C28.1696 24.575 27.8025 24.6145 27.8025 24.6145L27.1796 24.6812L26.9466 25.2708C26.928 25.3166 26.4949 26.4333 26.1277 28.0187L26.0721 28.2604C25.7235 29.75 25.3296 31.4354 25.6926 34.0937C25.8081 34.9416 26.0143 35.7625 26.3072 36.5395C23.5702 39.9145 22.1842 43.9708 22.1842 48.6125C22.1842 60.4937 27.8891 67.025 40.0991 69.0416C39.2844 70.2708 38.7152 71.6562 38.4223 73.1333C37.7417 73.4041 37.125 73.5833 36.5846 73.6666C36.0422 73.75 35.4771 73.7916 34.9057 73.7916C33.4826 73.7916 32.1152 73.5229 31.4201 73.1062C30.5126 72.5625 29.2401 71.202 28.1779 69.6375C27.456 68.575 26.0184 66.6854 24.4901 65.9812C23.1804 65.377 21.813 65.0291 20.7343 65.0291C20.5074 65.0291 20.3012 65.0458 20.1197 65.075C19.3648 65.1958 18.7419 65.6 18.4119 66.1875C18.1479 66.6541 18.1046 67.1937 18.2902 67.6625C18.6594 68.5958 20.0269 69.4333 20.5982 69.75C21.2891 70.1333 22.4936 71.3 23.1846 72.425C23.7022 73.2666 23.9477 73.877 24.2591 74.6479C24.4344 75.0833 24.6262 75.5583 24.8861 76.1312C25.5688 77.6291 27.6767 79.1979 28.8152 79.8875C30.3703 80.8291 33.2578 81.0916 34.8418 81.1625L35.0707 81.1666C35.6874 81.1666 36.7208 81.0729 38.1542 80.8854V87.5041C38.1542 89.127 36.1102 89.1916 35.6091 89.1916C35.5451 89.1916 36.6465 89.575 36.6465 89.575C40.6952 90.9166 45.0079 91.6666 49.5 91.6666C53.9921 91.6666 58.3048 90.9166 62.3514 89.577C62.3514 89.577 63.5498 89.152 63.4858 89.1604Z" fill="black"/>
<path d="M75.7845 48.6125C75.7845 43.8 74.1716 39.8084 71.4182 36.6792C71.7173 36.0021 72.0287 35.0938 72.1834 33.9521C72.5381 31.348 72.1194 29.7855 71.7647 28.2563C71.4099 26.7271 70.9912 25.6521 70.9912 25.6521C70.9912 25.6521 69.0896 25.4563 67.4788 26.0105C65.868 26.5646 64.482 26.9875 62.4834 28.1917C61.5491 28.7542 60.6086 29.3709 59.8641 29.8709C56.6816 28.9792 53.1816 28.5209 49.5 28.5209C45.7854 28.5209 42.2544 28.9813 39.0493 29.8792C38.3027 29.3771 37.356 28.7563 36.4155 28.1896C34.4169 26.9855 33.0309 26.5625 31.4201 26.0084C29.8093 25.4542 27.9077 25.65 27.9077 25.65C27.9077 25.65 27.489 26.725 27.1343 28.2542C26.7795 29.7834 26.3608 31.3459 26.7156 33.95C26.8744 35.1209 27.1961 36.0459 27.5034 36.7271C24.8016 39.8375 23.2176 43.8042 23.2176 48.6105C23.2176 61.075 29.8836 66.7646 42.0296 68.2667C40.6127 69.7792 39.6619 71.7167 39.3422 73.873C38.544 74.2271 37.6241 74.5605 36.7393 74.6938C34.4623 75.0417 32.0554 74.6938 30.8962 74C29.7371 73.3063 28.3614 71.7438 27.3302 70.223C26.4598 68.9396 25.2038 67.45 24.0653 66.925C22.5617 66.2313 21.0994 65.9709 20.2847 66.1C19.4679 66.2313 19.0823 66.8375 19.2534 67.273C19.4246 67.7063 20.2414 68.3584 21.1014 68.8355C21.9615 69.3125 23.2939 70.6146 24.0673 71.873C24.9294 73.2771 25.0986 74.0875 25.8287 75.6917C26.3423 76.8209 28.0995 78.2313 29.3514 78.9896C30.426 79.6417 32.5731 80.0125 34.8954 80.1188C35.6978 80.1563 37.5932 79.9188 39.1916 79.6896V87.5021C39.1916 88.8334 37.9851 89.8459 36.7352 89.6125C40.7468 90.975 45.0306 91.6667 49.5 91.6667C53.9674 91.6667 58.2512 90.975 62.2669 89.6167C61.0191 89.848 59.8125 88.8355 59.8125 87.5042V75.4125C59.8125 72.6438 58.7256 70.1417 56.9807 68.2771C69.0381 66.8146 75.7845 61.2605 75.7845 48.6125ZM23.1804 68.1813C22.8628 68.0167 22.6916 67.7125 22.7989 67.498C22.9061 67.2834 23.2526 67.2438 23.5703 67.4084C23.8879 67.573 24.0591 67.8771 23.9518 68.0917C23.8446 68.3063 23.4981 68.3459 23.1804 68.1813ZM25.6802 69.7542C25.5131 69.9375 25.1543 69.8792 24.8779 69.625C24.6015 69.3709 24.5128 69.0146 24.6799 68.8313C24.8469 68.648 25.2058 68.7063 25.4822 68.9605C25.7586 69.2146 25.8473 69.5709 25.6802 69.7542ZM27.2353 72.3584C27.0249 72.5084 26.6681 72.3688 26.4392 72.0459C26.2103 71.723 26.1958 71.3375 26.4062 71.1875C26.6166 71.0375 26.9734 71.1771 27.2023 71.5C27.4292 71.823 27.4457 72.2084 27.2353 72.3584ZM29.469 74.3188C29.3267 74.5521 28.9224 74.5625 28.5677 74.3438C28.2129 74.125 28.0397 73.7584 28.182 73.525C28.3243 73.2917 28.7286 73.2813 29.0833 73.5C29.4381 73.7188 29.6113 74.0855 29.469 74.3188ZM31.581 76.2375C31.1417 76.1834 30.8158 75.9063 30.8529 75.6188C30.888 75.3313 31.2737 75.1438 31.7109 75.198C32.1503 75.2521 32.4761 75.5292 32.439 75.8167C32.4039 76.1021 32.0203 76.2917 31.581 76.2375ZM34.9862 76.7355C34.518 76.7084 34.1529 76.4375 34.1715 76.1334C34.1901 75.8292 34.584 75.6021 35.0522 75.6292C35.5204 75.6563 35.8854 75.9271 35.8669 76.2313C35.8483 76.5375 35.4544 76.7625 34.9862 76.7355ZM38.1996 76.4105C37.7004 76.4105 37.2962 76.148 37.2962 75.825C37.2962 75.5021 37.7004 75.2396 38.1996 75.2396C38.6987 75.2396 39.1029 75.5021 39.1029 75.825C39.1029 76.148 38.6966 76.4105 38.1996 76.4105Z" fill="white"/>
<defs>
<linearGradient id="paint0_linear_25_871" x1="8.25" y1="48.9749" x2="90.75" y2="48.9749" gradientUnits="userSpaceOnUse">
<stop stop-color="#4C4C4C"/>
<stop offset="1" stop-color="#343434"/>
</linearGradient>
</defs>
</svg>
