<svg width="99" height="99" viewBox="0 0 99 99" fill="none" xmlns="http://www.w3.org/2000/svg">
<path d="M70.1601 86.6042L28.9101 86.6434C19.8351 86.6517 12.4039 79.2349 12.3936 70.1599L12.3544 28.9099C12.3461 19.8349 19.7629 12.4038 28.8379 12.3934L70.0879 12.3543C79.1629 12.346 86.5941 19.7628 86.6044 28.8378L86.6436 70.0877C86.6539 79.1648 79.2351 86.596 70.1601 86.6042Z" fill="url(#paint0_radial_25_860)"/>
<path d="M70.1601 86.6042L28.9101 86.6434C19.8351 86.6517 12.4039 79.2349 12.3936 70.1599L12.3544 28.9099C12.3461 19.8349 19.7629 12.4038 28.8379 12.3934L70.0879 12.3543C79.1629 12.346 86.5941 19.7628 86.6044 28.8378L86.6436 70.0877C86.6539 79.1648 79.2351 86.596 70.1601 86.6042Z" fill="url(#paint1_radial_25_860)"/>
<path d="M49.5 63.9375C41.5408 63.9375 35.0625 57.4612 35.0625 49.5C35.0625 41.5387 41.5408 35.0625 49.5 35.0625C57.4592 35.0625 63.9375 41.5387 63.9375 49.5C63.9375 57.4612 57.4592 63.9375 49.5 63.9375ZM49.5 39.1875C43.8137 39.1875 39.1875 43.8137 39.1875 49.5C39.1875 55.1863 43.8137 59.8125 49.5 59.8125C55.1863 59.8125 59.8125 55.1863 59.8125 49.5C59.8125 43.8137 55.1863 39.1875 49.5 39.1875Z" fill="white"/>
<path d="M64.9688 37.125C66.6774 37.125 68.0625 35.7399 68.0625 34.0312C68.0625 32.3226 66.6774 30.9375 64.9688 30.9375C63.2601 30.9375 61.875 32.3226 61.875 34.0312C61.875 35.7399 63.2601 37.125 64.9688 37.125Z" fill="white"/>
<path d="M61.875 76.3125H37.125C29.1658 76.3125 22.6875 69.8362 22.6875 61.875V37.125C22.6875 29.1637 29.1658 22.6875 37.125 22.6875H61.875C69.8342 22.6875 76.3125 29.1637 76.3125 37.125V61.875C76.3125 69.8362 69.8342 76.3125 61.875 76.3125ZM37.125 26.8125C31.4387 26.8125 26.8125 31.4387 26.8125 37.125V61.875C26.8125 67.5613 31.4387 72.1875 37.125 72.1875H61.875C67.5613 72.1875 72.1875 67.5613 72.1875 61.875V37.125C72.1875 31.4387 67.5613 26.8125 61.875 26.8125H37.125Z" fill="white"/>
<defs>
<radialGradient id="paint0_radial_25_860" cx="0" cy="0" r="1" gradientUnits="userSpaceOnUse" gradientTransform="translate(39.9713 86.6971) scale(92.6042)">
<stop stop-color="#FFDD55"/>
<stop offset="0.328" stop-color="#FF543F"/>
<stop offset="0.348" stop-color="#FC5245"/>
<stop offset="0.504" stop-color="#E64771"/>
<stop offset="0.643" stop-color="#D53E91"/>
<stop offset="0.761" stop-color="#CC39A4"/>
<stop offset="0.841" stop-color="#C837AB"/>
</radialGradient>
<radialGradient id="paint1_radial_25_860" cx="0" cy="0" r="1" gradientUnits="userSpaceOnUse" gradientTransform="translate(24.3086 11.4268) scale(61.4893 40.9703)">
<stop stop-color="#4168C9"/>
<stop offset="0.999" stop-color="#4168C9" stop-opacity="0"/>
</radialGradient>
</defs>
</svg>
