<svg width="98" height="100" viewBox="0 0 98 100" fill="none" xmlns="http://www.w3.org/2000/svg">
<path d="M85.75 77.0833C85.75 82.8375 81.1808 87.5 75.5417 87.5H22.4583C16.8213 87.5 12.25 82.8375 12.25 77.0833V22.9167C12.25 17.1625 16.8213 12.5 22.4583 12.5H75.5417C81.1808 12.5 85.75 17.1625 85.75 22.9167V77.0833Z" fill="#0288D1"/>
<path d="M24.5 39.5833H34.7083V75H24.5V39.5833ZM29.5735 35.4167H29.5164C26.4702 35.4167 24.5 33.1 24.5 30.2062C24.5 27.25 26.5315 25 29.6328 25C32.7381 25 34.6512 27.25 34.7083 30.2062C34.7083 33.0979 32.7381 35.4167 29.5735 35.4167ZM73.5 75H63.2917V56.0437C63.2917 51.4646 60.7906 48.3396 56.7747 48.3396C53.7101 48.3396 52.0523 50.4479 51.2479 52.4854C50.9539 53.2146 51.0417 55.2312 51.0417 56.25V75H40.8333V39.5833H51.0417V45.0333C52.5137 42.7083 54.8188 39.5833 60.7151 39.5833C68.0202 39.5833 73.498 44.2708 73.498 54.7375L73.5 75Z" fill="white"/>
</svg>
