<svg xmlns="http://www.w3.org/2000/svg" version="1.1" xmlnsXlink="http://www.w3.org/1999/xlink" xmlnsSvgjs="http://svgjs.com/svgjs" width="1440" height="3000" preserveAspectRatio="none" viewBox="0 0 1440 3000">
    <g mask="url(&quot;#SvgjsMask1029&quot;)" fill="none">
        <rect width="1440" height="3000" x="0" y="0" fill="rgba(26, 27, 33, 1)"></rect>
        <path d="M 736,-1512.2103961205073 C 624.8,-1312.21 84.6,-912.21 180,-512.2103961205073 C 275.4,-112.21 1113,87.79 1213,487.7896038794927 C 1313,887.79 655.4,1087.79 680,1487.7896038794927 C 704.6,1887.79 1334.2,2185.35 1336,2487.7896038794925 C 1337.8,2790.23 818.4,2897.56 689,3000" stroke="rgba(255, 255, 255, 1)" stroke-width="2"></path>
        <path d="M 579,-1858.6098661897258 C 633.4,-1658.61 930,-1258.61 851,-858.609866189726 C 772,-458.61 197.2,-258.61 184,141.39013381027405 C 170.8,541.39 801.8,741.39 785,1141.3901338102742 C 768.2,1541.39 47,1769.67 100,2141.390133810274 C 153,2513.11 860,2828.28 1050,3000" stroke="rgba(96, 96, 96, 1)" stroke-width="2"></path>
        <path d="M 1068,-1753.8066831320816 C 944.4,-1553.81 393.8,-1153.81 450,-753.8066831320817 C 506.2,-353.81 1428.6,-153.81 1349,246.19331686791827 C 1269.4,646.19 166.6,846.19 52,1246.1933168679184 C -62.6,1646.19 651.4,1895.43 776,2246.1933168679184 C 900.6,2596.95 695.2,2849.24 675,3000" stroke="rgba(96, 96, 96, 1)" stroke-width="2"></path>
        <path d="M 865,-1349.6426684164928 C 826.6,-1149.64 632.6,-749.64 673,-349.6426684164928 C 713.4,50.36 1166.4,250.36 1067,650.3573315835072 C 967.6,1050.36 139.2,1250.36 176,1650.3573315835072 C 212.8,2050.36 1268,2380.43 1251,2650.3573315835074 C 1234,2920.29 323,2930.07 91,3000" stroke="rgba(241, 175, 105, 1)" stroke-width="2"></path>
    </g>
    <defs>
        <mask id="SvgjsMask1029">
            <rect width="1440" height="3000" fill="#ffffff"></rect>
        </mask>
    </defs>
</svg>